# xmcd
#
# Track frame offsets: 
#        150
#        18630
#        32896
#        57729
#        87292
#        98472
#        113128
#        118533
#        123081
#        130102
#        143657
#        149278
#        155721
#        178973
#        200713
#        204523
#        213941
#        222794
#        240724
#        252196
#        268775
#        283654
#        287513
#        300532
#        313962
#
# Disc length: 4360 seconds
#
# Revision: 0
# Processed by: cddbd v1.5.2PL0 Copyright (c) Steve Scherf et al.
# Submitted via: ExactAudioCopy v0.95b3
#
DISCID=7f110619
DTITLE=Chicago  - Chicago II (SHM-CD Remastered)  FLAC
DYEAR=1900
DGENRE=
TTITLE0=Movin' In
TTITLE1=The Road
TTITLE2=Poem For The People
TTITLE3=In The Country
TTITLE4=Wake Up Sunshine
TTITLE5=Make Me Smile
TTITLE6=So Much To Say, So Much To Give
TTITLE7=Anxiety's Moment
TTITLE8=West Virginia Fantasies
TTITLE9=Colour My World
TTITLE10=To Be Free
TTITLE11=Now More Than Ever
TTITLE12=Fancy Colours
TTITLE13=25 Or 6 To 4
TTITLE14=Prelude
TTITLE15=A.M. Mourning
TTITLE16=P.M. Mourning
TTITLE17=Memories of Love
TTITLE18=It Better End Soon 1st Movement
TTITLE19=It Better End Soon 2nd Movement
TTITLE20=It Better End Soon 3rd Movement
TTITLE21=It Better End Soon 4th Movement
TTITLE22=Where Do We Go From Here
TTITLE23=Make Me Smile (Single Version)
TTITLE24=25 or 6 to 4 [Single Version]
EXTD=
EXTT0=
EXTT1=
EXTT2=
EXTT3=
EXTT4=
EXTT5=
EXTT6=
EXTT7=
EXTT8=
EXTT9=
EXTT10=
EXTT11=
EXTT12=
EXTT13=
EXTT14=
EXTT15=
EXTT16=
EXTT17=
EXTT18=
EXTT19=
EXTT20=
EXTT21=
EXTT22=
EXTT23=
EXTT24=
PLAYORDER=
